# xmcd
#
# Track frame offsets:
#	150
#	31455
#	52587
#	72538
#	93336
#	114946
#	139311
#	163186
#	189920
#	208575
#
# Disc length: 3065 seconds
#
# Revision: 13041548
# Processed by: cddbd v1.5.2PL0 Copyright (c) Steve Scherf et al.
# Submitted via: EZCDAudioConverter 8.0.2.1
#
DISCID=860bf70a
DTITLE=Hoài Nam -  Chiều Tây Đô. Xua Đi Huyền Thoại. Hạ Thương
DYEAR=1996
DGENRE=Miscellaneous
TTITLE0=Mưa bong bóng
TTITLE1=Yêu ai dám nói
TTITLE2=Hương thầm
TTITLE3=Chiều Tây Đô
TTITLE4=Quê hương
TTITLE5=Hạ Thương
TTITLE6=Chuyện hợp tan
TTITLE7=Mực tím mồng tơi
TTITLE8=Cỏ úa
TTITLE9=Nhớ về em
EXTD=
EXTT0=
EXTT1=
EXTT2=
EXTT3=
EXTT4=
EXTT5=
EXTT6=
EXTT7=
EXTT8=
EXTT9=
PLAYORDER=
